# xmcd CD database file
#
# Track frame offsets:
#	150
#	11568
#	24164
#	37176
#	48261
#	60727
#	71772
#	80688
#	90325
#	102010
#	115446
#	127728
#	137998
#	148576
#	160691
#	169758
#	179413
#	188366
#	199547
#	209908
#	220704
#	231921
#	242678
#	254455
#
# Disc length: 3505 seconds
#
# Revision: 0
# Processed by: cddbd v1.5.2PL0 Copyright (c) Steve Scherf et al.
# Submitted via: CDex 1.51
#
DISCID=4f0daf18
DTITLE=Paul and Roy - The Tennessee River Boys
DYEAR=1900
DGENRE=Country
TTITLE0=Paul and Roy/You're All Alone Tonight
TTITLE1=Paul and Roy/Spring Of Love
TTITLE2=Paul and Roy/You've Been Cheatin' On Me Darlin'
TTITLE3=Paul and Roy/I Was Only Pretending
TTITLE4=Paul and Roy/The Shape My Heart's In
TTITLE5=Paul and Roy/You Made The Break
TTITLE6=Paul and Roy/The Way You Lied To Me
TTITLE7=Paul and Roy/Don't Ever Tell Me
TTITLE8=Paul and Roy/Wicked Love
TTITLE9=Paul and Roy/Flower Of Old Tennessee
TTITLE10=Paul and Roy/I'm Lost Without You
TTITLE11=Paul and Roy/Meet The Lord Half Way
TTITLE12=Paul and Roy/There Will Be No Disapointments
TTITLE13=Paul and Roy/Every Dog Must Have It's Day
TTITLE14=Curtis McPeak and Benny Williams/Bluegrass Music's Really Gone To Town
TTITLE15=Curtis McPeak and Benny Williams/Angel Band
TTITLE16=Curtis McPeak and Benny Williams/Log Cabin In The Lane
TTITLE17=Curtis McPeak and Benny Williams/Rocky Road Blues
TTITLE18=Curtis McPeak and Benny Williams/Live And Let Live
TTITLE19=Curtis McPeak and Benny Williams/Footprints In The Snow
TTITLE20=Curtis McPeak and Benny Williams/Muleskinner Blues
TTITLE21=Curtis McPeak and Benny Williams/The Master's Bouquet
TTITLE22=Curtis McPeak and Benny Williams/Gathering Flowers From The Hillside
TTITLE23=Curtis McPeak and Benny Williams/Blue Moon Of Kentucky
EXTD=
EXTT0=
EXTT1=
EXTT2=
EXTT3=
EXTT4=
EXTT5=
EXTT6=
EXTT7=
EXTT8=
EXTT9=
EXTT10=
EXTT11=
EXTT12=
EXTT13=
EXTT14=
EXTT15=
EXTT16=
EXTT17=
EXTT18=
EXTT19=
EXTT20=
EXTT21=
EXTT22=
EXTT23=
PLAYORDER=
